HIERARCHY
ROOT Hips
{
  OFFSET 265.287 66.7526 -254.649
  CHANNELS 6 Xposition Yposition Zposition Zrotation Xrotation Yrotation
  JOINT LeftUpLeg
  {
    OFFSET 8.64259 1.95398 -2.38835
    CHANNELS 3 Zrotation Xrotation Yrotation
    JOINT LeftLeg
    {
      OFFSET 43.7702 0 0
      CHANNELS 3 Zrotation Xrotation Yrotation
      JOINT LeftFoot
      {
        OFFSET 40.6238 0 0
        CHANNELS 3 Zrotation Xrotation Yrotation
        JOINT LeftToeBase
        {
          OFFSET 12.7242 0 0
          CHANNELS 3 Zrotation Xrotation Yrotation
          End Site
          {
            OFFSET 0 0 0
          }
        }
      }
    }
  }
  JOINT RightUpLeg
  {
    OFFSET -8.2249 1.95398 -2.59336
    CHANNELS 3 Zrotation Xrotation Yrotation
    JOINT RightLeg
    {
      OFFSET 43.5653 0 0
      CHANNELS 3 Zrotation Xrotation Yrotation
      JOINT RightFoot
      {
        OFFSET 40.6238 0 0
        CHANNELS 3 Zrotation Xrotation Yrotation
        JOINT RightToeBase
        {
          OFFSET 12.7242 0 0
          CHANNELS 3 Zrotation Xrotation Yrotation
          End Site
          {
            OFFSET 0 0 0
          }
        }
      }
    }
  }
  JOINT Spine
  {
    OFFSET 0.165834 0.87714 6.61349
    CHANNELS 3 Zrotation Xrotation Yrotation
    JOINT Spine1
    {
      OFFSET 7.38963 1.71661e-005 0
      CHANNELS 3 Zrotation Xrotation Yrotation
      JOINT Spine2
      {
        OFFSET 11.9445 1.14441e-005 0
        CHANNELS 3 Zrotation Xrotation Yrotation
        JOINT Spine3
        {
          OFFSET 14.7254 4.19617e-005 0
          CHANNELS 3 Zrotation Xrotation Yrotation
          JOINT Spine4
          {
            OFFSET 10.9679 0 0
            CHANNELS 3 Zrotation Xrotation Yrotation
            JOINT RightShoulder
            {
              OFFSET 2.46616 -1.6653 3.69651
              CHANNELS 3 Zrotation Xrotation Yrotation
              JOINT RightArm
              {
                OFFSET 13.0012 0 0
                CHANNELS 3 Zrotation Xrotation Yrotation
                JOINT RightForeArm
                {
                  OFFSET 28.7848 1.52588e-005 0
                  CHANNELS 3 Zrotation Xrotation Yrotation
                  JOINT RightHand
                  {
                    OFFSET 26.5688 1.52588e-005 0
                    CHANNELS 3 Zrotation Xrotation Yrotation
                    End Site
                    {
                      OFFSET 0 0 0
                    }
                  }
                }
              }
            }
            JOINT LeftShoulder
            {
              OFFSET 2.38034 -1.29275 -3.7523
              CHANNELS 3 Zrotation Xrotation Yrotation
              JOINT LeftArm
              {
                OFFSET 16.3182 6.10351e-005 0
                CHANNELS 3 Zrotation Xrotation Yrotation
                JOINT LeftForeArm
                {
                  OFFSET 27.0901 0 0
                  CHANNELS 3 Zrotation Xrotation Yrotation
                  JOINT LeftHand
                  {
                    OFFSET 24.5451 1.52588e-005 0
                    CHANNELS 3 Zrotation Xrotation Yrotation
                    End Site
                    {
                      OFFSET 0 0 0
                    }
                  }
                }
              }
            }
            JOINT Neck
            {
              OFFSET 5.0226 -0.0266342 0
              CHANNELS 3 Zrotation Xrotation Yrotation
              JOINT Head
              {
                OFFSET 6.69364 2.86102e-005 0
                CHANNELS 3 Zrotation Xrotation Yrotation
                End Site
                {
                  OFFSET 0 0 0
                }
              }
            }
          }
        }
      }
    }
  }
}
MOTION
Frames:	15
Frame Time:	0.0416667
-2.26566 10.4539 -57.598 174.913 -1.49164 173.645 -172.888 4.10135 89.2094 -7.39321 -14.2689 -1.57036 41.3122 -5.26443 -17.2943 25.4045 0.509987 3.73827 174.881 3.89758 84.8375 -5.83083 12.5982 -1.10415 43.5953 9.33107 29.76 22.0459 1.47149 -2.73184 -0.597513 7.33528 -90.7271 12.1936 -1.53178 -1.28054 0.523006 -1.58666 -1.21189 -22.0112 -1.07618 -1.68165 -1.99853 -1.07617 -1.68166 103.084 15.1017 -74.3629 84.3891 -3.07238 -5.1618 -2.23439 -72.6161 -5.23407 -5.67263 -0.620268 8.2822 -74.9188 -7.85864 105.359 -80.1811 13.7607 -8.88445 9.02399 55.5503 -3.35016 -0.0895152 0.0157708 0.961284 35.2236 7.70382 10.3185 -27.1513 3.01655 -1.88984 
-2.23296 10.4537 -57.595 174.948 -1.43784 173.659 -172.83 3.97482 89.2212 -7.28524 -14.1029 -1.63049 40.494 -5.40759 -17.2273 27.0842 0.053287 3.66972 174.898 3.83226 84.8433 -5.82457 12.4538 -1.13632 43.9538 9.23029 29.7669 21.7026 1.67357 -3.52153 -0.599859 7.34428 -90.7287 12.1756 -1.5372 -1.28358 0.504944 -1.59221 -1.21469 -22.0292 -1.08044 -1.68618 -2.01656 -1.08043 -1.68617 103.083 15.0873 -74.3759 84.3886 -2.90709 -4.9922 -3.802 -72.5481 -6.73302 -5.27117 -0.552289 7.77842 -74.9047 -7.85872 105.4 -80.1679 13.6664 -8.9344 9.39784 56.7665 -3.79862 -1.08945 -0.032492 0.820116 35.2432 7.80138 10.2287 -27.2432 3.09667 -1.63789 
-2.21494 10.433 -57.6015 175.017 -1.46373 173.613 -172.835 3.90432 89.1739 -7.15779 -14.2648 -1.67017 40.6054 -5.36157 -17.1998 26.7296 0.156528 3.63235 174.859 3.89884 84.7847 -5.85432 12.2767 -1.11388 44.0056 9.20743 29.6118 21.4728 1.6837 -3.3484 -0.61151 7.34238 -90.7176 12.1795 -1.55508 -1.25935 0.508894 -1.60899 -1.18969 -22.0256 -1.10475 -1.66844 -2.01299 -1.10475 -1.66844 103.086 15.0033 -74.4013 84.3893 -2.92916 -5.1314 -3.57674 -72.9637 -6.5114 -5.21416 -0.558815 8.09967 -74.8829 -7.76605 105.482 -80.2155 13.9395 -8.79745 8.99156 56.0908 -3.51012 -0.878302 -0.0243791 0.693237 35.513 8.19073 9.7091 -27.9977 3.5947 -1.21058 
-2.21778 10.4513 -57.5978 174.995 -1.39836 173.597 -172.874 3.91548 89.1616 -7.33213 -14.3386 -1.6361 40.5432 -5.42096 -17.3355 26.8476 0.098463 3.82605 174.703 3.84345 84.7007 -5.91263 12.1457 -0.959761 44.1458 9.15839 29.6265 21.6425 1.69264 -3.56506 -0.613427 7.35137 -90.7172 12.1615 -1.55863 -1.25834 0.49095 -1.61251 -1.18853 -22.0436 -1.10845 -1.66856 -2.03098 -1.10846 -1.66857 103.088 15.0109 -74.3829 84.3464 -3.0618 -5.12396 -3.54124 -72.7804 -6.51775 -5.17083 -0.545515 7.8907 -74.878 -7.77983 105.494 -80.2433 13.8924 -8.80749 9.28147 57.3958 -3.82929 -0.441527 -0.00175576 0.88841 35.7628 8.45213 9.39376 -28.6606 3.89421 -0.858668 
-2.20828 10.4713 -57.5919 175.121 -1.61373 173.43 -172.955 3.77341 88.9825 -6.67585 -14.4108 -1.70794 40.0853 -5.37822 -17.3028 27.2561 -0.0438635 4.05996 174.779 4.0842 84.6061 -5.89706 12.002 -1.09486 43.9128 9.23007 29.5436 22.1683 1.63476 -3.77623 -0.589578 7.32495 -90.6996 12.2149 -1.50312 -1.22864 0.544263 -1.55573 -1.1613 -21.9902 -1.06442 -1.62354 -1.97758 -1.06443 -1.62353 103.079 15.077 -74.4154 84.4061 -2.81187 -4.87082 -4.66922 -72.7923 -7.72015 -5.15145 -0.558753 8.2743 -74.9097 -7.7999 105.397 -80.1872 13.9442 -8.82298 9.10524 56.8843 -3.68339 -1.28902 -0.0444812 0.497861 35.6486 8.40368 9.41575 -28.5284 3.81965 -0.733097 
-2.24104 10.4385 -57.6052 175.071 -1.44774 173.59 -172.855 3.93637 89.1739 -7.26655 -14.5961 -1.66294 40.4461 -5.39182 -17.4837 26.7858 0.123016 3.76806 174.826 3.8959 84.7496 -5.86629 12.2666 -1.0944 43.9988 9.20698 29.8019 21.4374 1.72421 -3.53218 -0.597263 7.34574 -90.7176 12.1728 -1.52671 -1.2625 0.502221 -1.58079 -1.19408 -22.0321 -1.07675 -1.66292 -2.01943 -1.07676 -1.66292 103.083 15.0524 -74.3925 84.4496 -2.73779 -5.00089 -4.31634 -72.9333 -7.19721 -5.24039 -0.555224 7.93192 -74.8909 -7.8297 105.447 -80.1705 13.9524 -8.89903 8.8952 55.7702 -3.34095 -0.477943 -0.00416853 0.853766 35.6803 8.46279 9.43255 -28.6027 3.88371 -0.812514 
-2.21587 10.4294 -57.5976 175.032 -1.4726 173.606 -172.861 3.94681 89.1683 -7.19399 -14.2446 -1.64176 40.6047 -5.36063 -17.2612 26.738 0.15461 3.62956 174.852 3.92101 84.7705 -5.8625 12.283 -1.11148 43.8638 9.24321 29.7322 21.7193 1.62306 -3.25645 -0.601862 7.34032 -90.7174 12.1836 -1.53586 -1.26099 0.513027 -1.58986 -1.19218 -22.0214 -1.08593 -1.66423 -2.00872 -1.08593 -1.66423 103.079 15.0581 -74.4276 84.3992 -2.92283 -5.04705 -3.56714 -72.7847 -6.55589 -5.26224 -0.566806 8.15348 -74.898 -7.7664 105.437 -80.1772 14.0681 -8.83737 8.90646 56.287 -3.49669 -0.929127 -0.0283577 0.572229 35.6785 8.45455 9.39881 -28.6715 3.89454 -0.823297 
-2.21328 10.4387 -57.5945 175.088 -1.52192 173.509 -172.931 3.87544 89.0706 -7.04734 -14.6292 -1.66035 40.4259 -5.36214 -17.3655 26.7943 0.156237 3.49624 174.795 3.98655 84.6664 -5.8805 12.1116 -1.09577 44.0153 9.19913 29.7641 21.7887 1.73689 -3.95953 -0.5906 7.33732 -90.7082 12.19 -1.5091 -1.2455 0.519402 -1.56245 -1.17788 -22.015 -1.06507 -1.64142 -2.00232 -1.06507 -1.64141 103.082 15.0679 -74.3977 84.3698 -2.9872 -4.98768 -3.87285 -72.8094 -6.92747 -5.09437 -0.550586 8.24009 -74.9011 -7.81801 105.419 -80.1982 13.9599 -8.84635 9.25936 57.2468 -3.84489 -0.693103 -0.0138083 0.85341 35.6598 8.37473 9.44948 -28.5507 3.79943 -0.839424 
-2.23048 10.4692 -57.6133 174.943 -1.41783 173.631 -172.866 3.91896 89.198 -7.23935 -14.1662 -1.6146 40.2093 -5.45734 -17.5251 27.2958 -0.0847634 4.29811 174.788 3.80612 84.7715 -5.84253 12.3427 -1.03198 44.0609 9.20649 29.7831 21.4361 1.7987 -3.9389 -0.60296 7.35129 -90.7249 12.1617 -1.54144 -1.27572 0.491067 -1.59608 -1.20665 -22.0432 -1.08683 -1.67995 -2.03055 -1.08682 -1.67996 103.089 15.0519 -74.3468 84.4413 -2.80414 -5.10039 -3.7301 -72.6849 -6.47772 -4.94893 -0.503457 7.45072 -74.8892 -7.83497 105.45 -80.1726 13.9913 -8.92114 9.04851 56.4325 -3.53908 0.0489562 0.0251256 1.09825 35.7504 8.38314 9.46563 -28.6951 3.80097 -0.880959 
-2.22963 10.4595 -57.613 174.983 -1.44405 173.62 -172.884 3.88279 89.1783 -7.09863 -14.2375 -1.60152 40.3142 -5.38474 -17.5322 27.1086 -0.0126725 4.1357 174.783 3.8521 84.7581 -5.87583 12.4858 -1.03986 44.0608 9.19296 29.8121 21.5779 1.75044 -3.81787 -0.607421 7.34577 -90.721 12.1726 -1.54849 -1.26684 0.502079 -1.60275 -1.19746 -22.0324 -1.09623 -1.67361 -2.01971 -1.09623 -1.67361 103.082 15.0546 -74.4036 84.3826 -3.0249 -5.12273 -2.97559 -72.3846 -5.89274 -5.66028 -0.597599 7.81462 -74.881 -7.82738 105.476 -80.1516 14.2125 -8.92054 8.76277 56.4536 -3.37837 -0.842999 -0.0235347 0.653615 35.711 8.40488 9.40554 -28.6036 3.8318 -0.786625 
-2.22738 10.4806 -57.6067 174.986 -1.48498 173.514 -172.921 3.85629 89.0887 -7.05973 -14.4635 -1.65733 40.4809 -5.36486 -17.3293 26.6732 0.191394 3.48404 174.826 3.88985 84.6892 -5.81531 12.2752 -1.13392 43.9842 9.23127 29.7483 21.4433 1.70559 -3.44258 -0.618591 7.3421 -90.7084 12.1802 -1.56481 -1.23974 0.509675 -1.61784 -1.16968 -22.0251 -1.11993 -1.65267 -2.01248 -1.11992 -1.65268 103.083 15.0362 -74.4042 84.3855 -2.9615 -5.12222 -3.9452 -72.7713 -6.8666 -5.07753 -0.53375 7.85647 -74.8737 -7.80083 105.503 -80.2088 14.0067 -8.86274 8.95897 56.7215 -3.53242 -1.04027 -0.0319175 0.65488 35.7376 8.45136 9.40055 -28.6477 3.88761 -0.836758 
-2.24314 10.4631 -57.6117 174.94 -1.42835 173.673 -172.814 3.92225 89.2662 -7.22745 -14.3372 -1.63576 40.4213 -5.38099 -17.4671 26.9243 0.0906796 3.72291 174.819 3.80877 84.8292 -5.82168 12.1613 -1.0295 44.0404 9.23417 29.4217 21.5543 1.66616 -3.33345 -0.614042 7.3488 -90.7278 12.1664 -1.56489 -1.2788 0.495832 -1.61965 -1.20869 -22.0386 -1.10828 -1.68994 -2.02593 -1.10827 -1.68995 103.083 15.0709 -74.3821 84.3946 -3.04234 -5.19279 -2.8372 -72.3038 -5.68008 -5.50053 -0.566298 7.50045 -74.8769 -7.82738 105.488 -80.2052 14.023 -8.86076 8.99243 56.5198 -3.52826 -0.87607 -0.0254487 0.60952 35.7196 8.44427 9.40973 -28.6631 3.89029 -0.888471 
-2.21043 10.4518 -57.6032 175.039 -1.57991 173.413 -173.005 3.82245 88.9759 -6.83056 -14.633 -1.64507 40.223 -5.35046 -17.4927 26.9192 0.0747763 3.85625 174.733 4.05886 84.5568 -5.90196 12.1159 -1.07743 44.002 9.19563 29.7083 21.6938 1.72578 -3.79928 -0.601674 7.32909 -90.6997 12.2064 -1.52718 -1.22612 0.535887 -1.57966 -1.15772 -21.9988 -1.08812 -1.62837 -1.98613 -1.08813 -1.62837 103.082 15.0743 -74.3884 84.3796 -3.05214 -5.11416 -3.25925 -72.6755 -6.28855 -5.29864 -0.574234 8.23083 -74.8926 -7.85463 105.437 -80.2051 13.9328 -8.87244 9.12176 57.321 -3.66306 -0.920557 -0.0266525 0.667982 35.6789 8.46885 9.4562 -28.6677 3.89357 -0.875848 
-2.21293 10.4492 -57.605 175.027 -1.37679 173.542 -172.975 3.77742 89.0953 -7.06709 -14.508 -1.56804 40.2932 -5.39612 -17.5796 26.9772 0.0498033 3.92531 174.668 3.82437 84.6371 -5.92425 12.3547 -0.971482 43.9864 9.20184 29.7396 21.6182 1.64621 -3.28737 -0.598526 7.34985 -90.7134 12.1646 -1.52724 -1.25433 0.494058 -1.58096 -1.18589 -22.0403 -1.07972 -1.65522 -2.02771 -1.07972 -1.65522 103.08 15.0799 -74.4082 84.3849 -2.91378 -4.99531 -3.81438 -72.5469 -6.77884 -5.27457 -0.562257 8.00218 -74.9042 -7.81787 105.41 -80.2319 13.9089 -8.88509 9.16565 56.9127 -3.66265 -0.892154 -0.0238146 0.772999 35.645 8.42775 9.4374 -28.5974 3.86472 -0.870415 
-2.22666 10.5037 -57.613 174.941 -1.43462 173.528 -172.929 3.77904 89.1045 -7.01219 -14.3075 -1.61952 40.3311 -5.38605 -17.3611 26.9757 0.0775774 3.71508 174.789 3.80181 84.6798 -5.80402 12.3806 -1.10381 43.9067 9.25783 29.7534 21.8695 1.64513 -3.53053 -0.614206 7.34134 -90.7128 12.1818 -1.55818 -1.24934 0.511232 -1.61165 -1.17954 -22.0234 -1.11072 -1.66216 -2.01082 -1.11073 -1.66217 103.073 15.1012 -74.4502 84.3986 -2.90498 -5.01862 -3.78638 -72.5797 -6.65013 -5.21257 -0.537007 7.56758 -74.8938 -7.83781 105.436 -80.1616 14.0683 -8.901 8.91164 57.0632 -3.53071 -1.49894 -0.0535613 0.491114 35.6479 8.47622 9.43825 -28.6049 3.90109 -0.82951 
